<svg viewBox="0 0 326 181" fill="none" xmlns="http://www.w3.org/2000/svg">
<path d="M252.181 180.627L236.679 180.627L214.58 123.97L228.763 123.97C229.972 123.97 230.98 124.261 231.787 124.843C232.629 125.389 233.197 126.081 233.491 126.918L241.407 152.304C242.03 154.379 242.616 156.399 243.166 158.364C243.752 160.33 244.247 162.295 244.65 164.261C245.053 162.295 245.548 160.33 246.134 158.364C246.721 156.399 247.344 154.379 248.003 152.304L256.249 126.918C256.542 126.081 257.092 125.389 257.898 124.843C258.705 124.261 259.658 123.97 260.757 123.97L274.28 123.97L252.181 180.627Z" fill="black"/>
<path d="M189.39 97.542C191.039 97.542 192.743 97.6325 194.502 97.8145C196.261 97.96 197.782 98.1969 199.064 98.5244L198.516 107.927C198.442 108.837 197.983 109.437 197.141 109.729C196.298 110.02 195.4 110.165 194.447 110.165C190.636 110.165 187.484 110.456 184.992 111.038C182.5 111.62 180.521 112.494 179.055 113.659C177.626 114.787 176.618 116.207 176.031 117.917C175.482 119.628 175.207 121.593 175.207 123.813L175.207 124.087L210.33 124.087L210.33 180.635L193.289 180.635L193.289 136.491L175.757 136.491L175.757 180.635L158.715 180.635L158.715 136.438L154.977 135.673C153.694 135.382 152.65 134.926 151.844 134.308C151.074 133.689 150.689 132.779 150.689 131.578L150.689 124.087L158.715 124.087L158.715 122.437C158.715 119.015 159.301 115.794 160.474 112.773C161.683 109.716 163.534 107.078 166.026 104.857C168.518 102.601 171.688 100.817 175.536 99.5068C179.421 98.1966 184.039 97.542 189.39 97.542Z" fill="black"/>
<path fill-rule="evenodd" clip-rule="evenodd" d="M291.944 2.32456e-05C310.301 2.64552e-05 325.182 14.8809 325.182 33.2374L325.182 49.8561C325.182 67.9258 310.762 82.6279 292.802 83.0828L291.944 83.0934L192.233 83.0934L191.375 83.0828C173.701 82.6351 159.454 68.3888 159.007 50.7137L158.996 49.856L158.996 33.2373C158.996 14.8809 173.877 2.86952e-06 192.233 5.8114e-06L291.944 2.32456e-05ZM192.233 15.7877C183.055 15.7877 176.446 23.2282 176.446 32.4064L176.446 50.687C176.446 59.8652 183.055 67.3056 192.233 67.3056L291.944 67.3056C301.123 67.3057 307.732 59.8652 307.732 50.687L307.732 32.4064C307.732 23.2282 301.123 15.7878 291.944 15.7878L192.233 15.7877Z" fill="#ffda33"/>
<path d="M262.867 48.1924C262.867 53.5329 263.491 56.806 264.221 59.1802C265.022 61.7877 266.052 63.7583 267.764 67.1932C269.417 70.5122 271.439 74.7343 272.949 80.564C274.457 86.3877 275.331 93.3042 275.331 102.203L258.712 102.203C258.712 95.1831 258.028 90.6573 257.199 87.4556C256.371 84.2602 255.277 81.8731 253.815 78.9384C252.41 76.1196 250.324 72.1916 248.789 67.1953C247.181 61.9653 246.248 55.9282 246.248 48.1924L262.867 48.1924Z" fill="#ffda33"/>
<path fill-rule="evenodd" clip-rule="evenodd" d="M78.9986 0.0723719C94.2825 -0.411179 108.722 7.81712 117.166 22.4419C121.026 29.128 123.167 35.1793 123.167 43.2542H107.792C104.962 43.2542 102.787 40.9174 102.069 38.1794C101.53 36.1204 100.585 34.0338 99.07 31.4105C92.265 19.6243 79.2202 14.8733 67.5728 21.5978C55.0878 28.8062 51.0239 45.0379 58.5977 58.1909L103.047 134.522C107.891 125.032 110.76 113.41 111.351 100.336C111.479 97.5085 113.759 95.2111 116.59 95.2111H131.964C131.964 117.549 126.386 138.444 114.437 154.079L129.898 180.631H109.526C107.702 180.631 106.014 179.66 105.096 178.084L99.4587 168.403C88.6717 175.899 75.8729 180.521 60.2167 180.631C59.6977 180.64 59.3626 180.627 58.9355 180.627C58.7766 180.626 58.6178 180.623 58.4592 180.621C58.1918 180.625 57.9235 180.629 57.6543 180.631C57.1353 180.64 56.8002 180.627 56.3731 180.627C25.2681 180.406 0.000153468 157.232 0 125.96C0.000172574 99.8934 17.8229 77.2505 42.6902 70.9188L40.5348 67.2178L40.5265 67.2028L40.5182 67.1886C28.3559 46.1225 34.3125 18.6096 56.042 6.0639C63.5484 1.73007 71.4151 -0.170677 78.9986 0.0723719ZM52.4678 87.7098C34.051 90.9951 20.4995 107.149 20.4993 125.96C20.4995 146.016 36.2483 161.623 58.0522 162.239C71.1552 161.928 81.568 157.974 89.6019 151.476L52.4678 87.7098Z" fill="black"/>
<path d="M299.572 123.489C303.364 123.489 306.825 124.061 309.955 125.206C313.121 126.35 315.827 128.012 318.073 130.193C320.355 132.375 322.123 135.056 323.374 138.239C324.663 141.385 325.307 144.961 325.307 148.965C325.307 150.217 325.252 151.236 325.141 152.022C325.031 152.809 324.829 153.435 324.534 153.9C324.239 154.364 323.834 154.686 323.319 154.865C322.84 155.044 322.215 155.133 321.441 155.133L288.417 155.133C288.969 159.781 290.423 163.16 292.779 165.27C295.136 167.344 298.173 168.381 301.892 168.381C303.88 168.381 305.592 168.148 307.028 167.683C308.463 167.219 309.734 166.7 310.838 166.128C311.979 165.556 313.01 165.038 313.931 164.573C314.888 164.108 315.882 163.875 316.913 163.875C318.275 163.875 319.306 164.358 320.006 165.324L324.976 171.277C323.209 173.243 321.294 174.852 319.232 176.104C317.207 177.32 315.109 178.285 312.937 179C310.801 179.679 308.648 180.144 306.475 180.395C304.34 180.681 302.297 180.824 300.345 180.824C296.332 180.824 292.559 180.198 289.024 178.947C285.527 177.659 282.452 175.764 279.802 173.261C277.188 170.758 275.107 167.648 273.561 163.929C272.052 160.21 271.297 155.884 271.297 150.95C271.297 147.231 271.941 143.709 273.23 140.384C274.555 137.059 276.433 134.144 278.863 131.642C281.329 129.139 284.293 127.154 287.754 125.688C291.252 124.222 295.191 123.489 299.572 123.489ZM299.904 134.967C296.627 134.967 294.068 135.879 292.227 137.702C290.386 139.49 289.171 142.082 288.582 145.479L309.955 145.479C309.955 144.156 309.77 142.869 309.402 141.617C309.071 140.366 308.5 139.258 307.69 138.292C306.917 137.291 305.886 136.486 304.598 135.879C303.309 135.271 301.744 134.967 299.904 134.967Z" fill="black"/>
</svg>